<svg width="72" height="72" viewBox="0 0 72 72" fill="none" xmlns="http://www.w3.org/2000/svg">
<path d="M0 0H4.71616V72H0V0Z" fill="white"/>
<path d="M67.2838 0H72V72H67.2838V0Z" fill="white"/>
<path d="M26.7249 0H72L72 4.70588H26.7249V0Z" fill="white"/>
<path d="M0 0H18.0786V4.70588H0V0Z" fill="white"/>
<path d="M0 67.2941H72L72 72H0V67.2941Z" fill="white"/>
<path d="M13.3624 53.9608H58.6376V58.6667H13.3624V53.9608Z" fill="white"/>
<path d="M26.7249 40.6274H45.2751V45.3333H26.7249V40.6274Z" fill="white"/>
<path d="M40.5589 13.3333H58.6375V18.0392H40.5589V13.3333Z" fill="white"/>
<path d="M40.5589 13.3333H45.2751L45.2751 45.3333L40.5589 45.3333V13.3333Z" fill="white"/>
<path d="M53.9214 13.3333H58.6375L58.6376 58.6667H53.9214V13.3333Z" fill="white"/>
<path d="M26.7249 4.70588L31.441 4.70588V45.3333L26.7249 45.3333V4.70588Z" fill="white"/>
<path d="M13.3624 0H18.0786L18.0786 58.6667L13.3624 58.6667V0Z" fill="white"/>
</svg>
